<svg width="19" height="12" viewBox="0 0 19 12" fill="none" xmlns="http://www.w3.org/2000/svg">
<path d="M16.7208 0H5.39085C3.83085 0 2.22085 1.27 1.80085 2.83L0.100851 9.17C-0.319149 10.73 0.610851 12 2.18085 12H13.5109C15.0809 12 16.6809 10.73 17.1009 9.17L18.8008 2.84C19.2208 1.27 18.2908 0 16.7208 0ZM13.4509 6C13.3009 6.55 12.7309 7 12.1809 7H10.1809L9.65085 9C9.50085 9.55 8.93085 10 8.38085 10C7.83085 10 7.50085 9.55 7.65085 9L8.19085 7H6.19085C5.63085 7 5.30085 6.55 5.45085 6C5.60085 5.45 6.17085 5 6.72085 5H8.72085L9.26085 3C9.41085 2.45 9.98085 2 10.5309 2C11.0809 2 11.4109 2.45 11.2609 3L10.7209 5H12.7209C13.2709 5 13.6009 5.45 13.4509 6Z" fill="url(#paint0_linear_1_5743)"/>
<defs>
<linearGradient id="paint0_linear_1_5743" x1="0.255428" y1="0.518919" x2="20.3548" y2="8.19523" gradientUnits="userSpaceOnUse">
<stop stop-color="#FF4460"/>
<stop offset="0.53125" stop-color="#AD00FF"/>
<stop offset="0.927083" stop-color="#31CEFF"/>
</linearGradient>
</defs>
</svg>
